HIERARCHY
ROOT Pelvis
{
	OFFSET -0.217368 -24.078917 2.858379
	CHANNELS 6 Xposition Yposition Zposition Zrotation Yrotation Xrotation 
	JOINT Left_hip
	{
		OFFSET 5.858135 -8.228005 -1.766408
		CHANNELS 3 Zrotation Yrotation Xrotation
		JOINT Left_knee
		{
			OFFSET 4.345143 -38.646942 0.803700
			CHANNELS 3 Zrotation Yrotation Xrotation
			JOINT Left_ankle
			{
				OFFSET -1.479033 -42.687447 -3.742800
				CHANNELS 3 Zrotation Yrotation Xrotation
				JOINT Left_foot
				{
					OFFSET 4.105436 -6.028605 12.204244
					CHANNELS 3 Zrotation Yrotation Xrotation
					End Site
					{
						OFFSET 0.000000 0.000000 0.000000
					}
				}
			}
		}
	}
	JOINT Right_hip
	{
		OFFSET -6.030973 -9.051328 -1.354253
		CHANNELS 3 Zrotation Yrotation Xrotation
		JOINT Right_knee
		{
			OFFSET -4.325663 -38.368790 -0.484304
			CHANNELS 3 Zrotation Yrotation Xrotation
			JOINT Right_ankle
			{
				OFFSET 1.905555 -42.004566 -3.456167
				CHANNELS 3 Zrotation Yrotation Xrotation
				JOINT Right_foot
				{
					OFFSET -3.483987 -6.210554 13.032330
					CHANNELS 3 Zrotation Yrotation Xrotation
					End Site
					{
						OFFSET 0.000000 0.000000 0.000000
					}
				}
			}
		}
	}
	JOINT Spine1
	{
		OFFSET 0.443945 12.440353 -3.838522
		CHANNELS 3 Zrotation Yrotation Xrotation
		JOINT Spine2
		{
			OFFSET 0.448844 13.795640 2.682033
			CHANNELS 3 Zrotation Yrotation Xrotation
			JOINT Spine3
			{
				OFFSET -0.226460 5.603239 0.285504
				CHANNELS 3 Zrotation Yrotation Xrotation
				JOINT Neck
				{
					OFFSET -1.339018 21.163553 -3.346758
					CHANNELS 3 Zrotation Yrotation Xrotation
					JOINT Head
					{
						OFFSET 1.011321 8.893734 5.040987
						CHANNELS 3 Zrotation Yrotation Xrotation
						End Site
						{
							OFFSET 0.000000 0.000000 0.000000
						}
					}
				}
				JOINT Left_collar
				{
					OFFSET 7.170247 11.399971 -1.889817
					CHANNELS 3 Zrotation Yrotation Xrotation
					JOINT Left_shoulder
					{
						OFFSET 12.292140 4.520507 -1.904600
						CHANNELS 3 Zrotation Yrotation Xrotation
						JOINT Left_elbow
						{
							OFFSET 25.533188 -1.564902 -2.294648
							CHANNELS 3 Zrotation Yrotation Xrotation
							JOINT Left_wrist
							{
								OFFSET 26.570929 1.269810 -0.737473
								CHANNELS 3 Zrotation Yrotation Xrotation
								JOINT Left_palm
								{
									OFFSET 8.669054 -1.063602 -1.559429
									CHANNELS 3 Zrotation Yrotation Xrotation
									End Site
									{
										OFFSET 0.000000 0.000000 0.000000
									}
								}
							}
						}
					}
				}
				JOINT Right_collar
				{
					OFFSET -8.295364 11.247234 -2.370738
					CHANNELS 3 Zrotation Yrotation Xrotation
					JOINT Right_shoulder
					{
						OFFSET -11.322830 4.685326 -0.847207
						CHANNELS 3 Zrotation Yrotation Xrotation
						JOINT Right_elbow
						{
							OFFSET -26.012751 -1.436928 -3.126872
							CHANNELS 3 Zrotation Yrotation Xrotation
							JOINT Right_wrist
							{
								OFFSET -26.910841 0.679372 -0.602677
								CHANNELS 3 Zrotation Yrotation Xrotation
								JOINT Right_palm
								{
									OFFSET -8.875370 -0.865157 -1.010708
									CHANNELS 3 Zrotation Yrotation Xrotation
									End Site
									{
										OFFSET 0.000000 0.000000 0.000000
									}
								}
							}
						}
					}
				}
			}
		}
	}
}
MOTION
Frames: 13
Frame Time: 0.016667
0.430678 36.673447 9.913961 -4.080890 7.338841 -13.638566 13.275745 1.793198 -69.592960 -9.013453 7.194283 93.058597 8.672665 17.708590 -1.342577 0.000000 0.000000 0.000000 -12.390349 -0.318969 -65.000375 16.611306 -15.952853 91.964644 -8.188513 -20.053834 0.195485 0.000000 0.000000 0.000000 -5.973383 1.163484 80.211399 12.876210 -0.617176 -37.503250 4.418711 6.453678 35.298075 -15.218603 8.974603 -25.478030 0.000000 0.000000 0.000000 -8.910099 -19.533749 7.590179 -28.265446 -38.209923 5.101055 22.446916 -27.066139 -4.339161 0.000000 0.000000 0.000000 0.000000 0.000000 0.000000 -1.618928 22.875013 7.798999 37.021405 32.598911 6.264035 -31.365873 27.358194 -6.246320 0.000000 0.000000 0.000000 0.000000 0.000000 0.000000 
0.537108 39.112114 11.139799 -3.581032 7.704931 -10.661323 12.527639 1.264556 -68.770817 -8.290001 5.871787 89.377216 8.625608 17.565137 -2.087592 0.000000 0.000000 0.000000 -11.261613 0.362210 -64.028022 14.858727 -13.005867 88.812037 -8.189097 -20.047699 -2.182067 0.000000 0.000000 0.000000 -5.427708 0.671938 78.087449 11.774265 -0.603047 -36.559835 4.186610 5.655653 33.460246 -13.630512 8.032262 -27.743973 0.000000 0.000000 0.000000 -7.137504 -20.366036 7.770999 -27.055603 -39.745792 5.134914 23.311577 -26.393644 -4.428508 0.000000 0.000000 0.000000 0.000000 0.000000 0.000000 -1.277871 22.744101 7.797936 34.507713 33.182455 5.858766 -31.706982 28.476241 -6.627150 0.000000 0.000000 0.000000 0.000000 0.000000 0.000000 
0.707796 42.057396 12.416590 -3.287831 7.634749 -8.346168 12.155034 0.965603 -66.402708 -7.328112 4.447896 86.110240 7.760765 15.757327 -2.298798 0.000000 0.000000 0.000000 -10.269960 0.918443 -61.623485 13.734113 -10.900563 84.853372 -7.840560 -19.153759 -3.556639 0.000000 0.000000 0.000000 -4.645219 0.027326 74.834519 10.340954 -0.471652 -36.073569 3.981692 4.624623 32.562044 -12.672656 7.481471 -29.394036 0.000000 0.000000 0.000000 -7.073216 -20.797607 7.950297 -26.871440 -40.523186 5.259985 22.939072 -25.858765 -4.247188 0.000000 0.000000 0.000000 0.000000 0.000000 0.000000 0.148018 22.688315 7.964881 33.687794 33.685865 5.808974 -31.044347 27.698919 -6.259771 0.000000 0.000000 0.000000 0.000000 0.000000 0.000000 
0.926380 45.726151 13.767926 -2.606808 7.982970 -5.792667 11.004284 0.212321 -63.508936 -6.891627 3.592842 80.170822 7.195966 14.638724 -1.831584 0.000000 0.000000 0.000000 -9.622740 1.231930 -59.060970 12.318593 -8.591156 80.008511 -7.238605 -17.591830 -3.763490 0.000000 0.000000 0.000000 -3.967023 -0.462241 70.799953 9.766466 -0.471810 -35.371569 3.405406 3.346436 31.314968 -12.280197 7.208795 -30.909531 0.000000 0.000000 0.000000 -7.510167 -20.761965 7.984302 -29.169917 -40.142347 5.817037 23.105033 -27.018693 -4.490134 0.000000 0.000000 0.000000 0.000000 0.000000 0.000000 1.037539 22.277296 7.927641 36.154893 33.108275 6.220832 -30.767712 28.825474 -6.486504 0.000000 0.000000 0.000000 0.000000 0.000000 0.000000 
1.186626 49.934525 15.294306 -2.355871 7.972087 -4.405742 10.746825 0.042027 -59.193348 -6.609003 3.000075 73.923920 6.560462 13.751901 0.958482 0.000000 0.000000 0.000000 -8.985099 1.460504 -54.843471 11.552448 -6.980537 73.215614 -6.537327 -15.960659 -2.033020 0.000000 0.000000 0.000000 -2.912938 -1.130248 66.638677 8.673959 -0.384818 -34.706745 3.032594 2.231138 30.657292 -11.850919 6.874150 -33.394554 0.000000 0.000000 0.000000 -9.576061 -20.641774 8.164837 -30.964471 -39.339288 6.106020 20.854733 -28.309380 -4.148724 0.000000 0.000000 0.000000 0.000000 0.000000 0.000000 3.329662 21.559351 7.936435 37.831733 32.232163 6.332335 -28.557885 29.785690 -6.167335 0.000000 0.000000 0.000000 0.000000 0.000000 0.000000 
1.482928 54.372070 17.075104 -1.284808 7.150468 -2.740861 10.405847 -0.143674 -53.119550 -7.438208 3.341251 65.981554 7.207271 15.148202 2.078562 0.000000 0.000000 0.000000 -7.982599 1.813171 -51.063592 8.467736 -3.741404 66.688385 -5.574157 -13.695419 -1.080499 0.000000 0.000000 0.000000 -2.352058 -1.337964 60.692112 7.763959 -0.500589 -32.034093 1.964899 1.785891 28.988664 -10.204694 6.195542 -34.132019 0.000000 0.000000 0.000000 -11.234275 -20.242562 8.164192 -34.432843 -37.127387 6.388971 17.721591 -29.976446 -3.572073 0.000000 0.000000 0.000000 0.000000 0.000000 0.000000 5.757545 20.487803 7.782189 40.936974 29.948589 6.238054 -27.064859 32.973490 -6.508760 0.000000 0.000000 0.000000 0.000000 0.000000 0.000000 
1.777890 58.666031 19.153305 -0.837784 6.541871 -1.713649 9.337333 -0.597174 -47.566332 -6.392005 2.250627 59.255004 6.957649 15.085501 5.535786 0.000000 0.000000 0.000000 -7.415016 1.834437 -45.381542 6.597496 -1.970007 58.595952 -4.242237 -10.963202 1.356047 0.000000 0.000000 0.000000 -0.924574 -1.938770 54.844186 5.741130 -0.281771 -30.363082 1.236731 0.685107 27.603471 -8.645072 5.569072 -35.035628 0.000000 0.000000 0.000000 -14.282324 -19.578552 8.167337 -37.137354 -34.275918 6.143411 12.383644 -31.682605 -2.287287 0.000000 0.000000 0.000000 0.000000 0.000000 0.000000 9.107755 19.053770 7.509481 42.643742 27.403422 5.663354 -22.187000 34.940504 -5.477568 0.000000 0.000000 0.000000 0.000000 0.000000 0.000000 
2.057436 62.732536 21.498756 -0.254766 4.927772 -0.570786 8.639411 -0.776658 -41.070356 -6.132789 1.832409 51.216624 6.435302 14.340953 6.931524 0.000000 0.000000 0.000000 -6.498538 1.920911 -39.786095 4.131325 -0.253892 51.289203 -3.401284 -9.383632 2.883717 0.000000 0.000000 0.000000 -0.927671 -1.663047 48.070781 5.254800 -0.387994 -27.623731 0.503154 0.533068 26.390405 -7.051405 4.999543 -32.967360 0.000000 0.000000 0.000000 -15.610695 -16.885729 6.905773 -41.389976 -30.897743 5.873795 7.547267 -32.927229 -0.973235 0.000000 0.000000 0.000000 0.000000 0.000000 0.000000 10.875001 16.915898 6.677217 47.323854 23.565417 4.955621 -19.336422 37.980050 -5.093735 0.000000 0.000000 0.000000 0.000000 0.000000 0.000000 
2.328658 66.277069 24.105394 -0.180555 4.639565 0.038423 6.901276 -1.194059 -34.939674 -4.503196 0.767484 44.215305 5.650278 13.127687 7.881263 0.000000 0.000000 0.000000 -6.029560 1.808890 -34.564540 3.300148 0.163566 44.376524 -2.163126 -7.316264 5.364226 0.000000 0.000000 0.000000 -0.417306 -1.651353 42.484838 4.782601 -0.338124 -26.894905 0.402497 -0.731779 26.226006 -7.020298 5.005322 -31.658492 0.000000 0.000000 0.000000 -17.633505 -14.154016 5.590872 -45.314942 -26.298177 4.804743 2.934763 -34.247334 0.385025 0.000000 0.000000 0.000000 0.000000 0.000000 0.000000 12.162864 15.055131 5.879546 50.544937 19.859776 3.816402 -14.456035 38.552150 -3.551808 0.000000 0.000000 0.000000 0.000000 0.000000 0.000000 
2.548715 69.555832 26.826698 0.074149 3.643091 0.155476 6.032121 -1.147361 -27.448749 -3.900399 0.438970 35.625565 4.966017 12.159141 9.045810 0.000000 0.000000 0.000000 -5.222951 1.663057 -28.032838 1.817601 0.745261 36.996032 -0.631740 -4.773875 7.617142 0.000000 0.000000 0.000000 -0.784898 -1.250656 35.853487 4.862058 -0.446559 -25.569527 0.257917 -0.802251 26.756832 -6.833168 4.959472 -29.116552 0.000000 0.000000 0.000000 -18.349280 -10.885569 3.856131 -49.030000 -20.669126 2.953362 -1.468223 -33.433370 1.679930 0.000000 0.000000 0.000000 0.000000 0.000000 0.000000 12.878857 12.627639 4.739400 54.266982 14.130549 1.554688 -10.241021 39.607663 -2.222861 0.000000 0.000000 0.000000 0.000000 0.000000 0.000000 
2.707015 72.148140 29.551443 -0.260960 3.847830 0.240008 4.769539 -1.133563 -21.508368 -1.584236 -0.423534 28.218958 3.276846 9.724188 10.900719 0.000000 0.000000 0.000000 -4.182533 1.522585 -22.325517 0.935051 0.911178 30.509824 0.890584 -2.310488 9.447364 0.000000 0.000000 0.000000 -0.604235 -1.113225 30.756168 4.546606 -0.403602 -25.126463 0.248245 -1.205786 26.799524 -5.373041 4.319573 -27.864145 0.000000 0.000000 0.000000 -19.680587 -8.357014 2.475368 -51.436364 -15.489951 0.883111 -3.514500 -32.878678 2.246914 0.000000 0.000000 0.000000 0.000000 0.000000 0.000000 14.456115 10.356004 3.653251 54.993514 10.183266 -0.247131 -7.474853 38.662160 -1.240586 0.000000 0.000000 0.000000 0.000000 0.000000 0.000000 
2.836105 74.094246 32.172112 -0.517203 3.394278 -0.255924 4.242134 -0.834904 -14.415751 -0.318481 -0.605303 19.827987 1.724172 7.712577 12.980080 0.000000 0.000000 0.000000 -3.143256 1.249027 -16.178150 -0.148299 1.003339 23.254914 1.940510 -1.242375 11.955654 0.000000 0.000000 0.000000 -0.770294 -0.872422 25.411057 4.821915 -0.495799 -24.719371 -0.044353 -0.971374 27.517806 -4.095734 3.726988 -26.713568 0.000000 0.000000 0.000000 -19.383844 -5.779828 1.079843 -53.409306 -9.968571 -1.547688 -5.540937 -32.566597 2.810277 0.000000 0.000000 0.000000 0.000000 0.000000 0.000000 14.559677 8.438088 2.698342 56.917270 6.252835 -2.123940 -5.179308 36.451252 -0.442680 0.000000 0.000000 0.000000 0.000000 0.000000 0.000000 
2.946623 75.226486 34.599243 -0.881856 3.463839 -0.762589 4.106368 -0.529475 -8.665178 0.368380 -0.536036 13.018728 0.962848 6.877550 14.362029 0.000000 0.000000 0.000000 -2.681373 0.911643 -11.092508 -0.369626 0.806985 17.457443 2.456247 -0.740072 13.131165 0.000000 0.000000 0.000000 -1.185962 -0.642843 21.242742 5.189908 -0.601478 -24.464030 -0.180266 -1.465561 27.731668 -3.576589 3.457234 -25.349607 0.000000 0.000000 0.000000 -19.806517 -3.069000 -0.417357 -54.713256 -5.114544 -3.804463 -7.077646 -32.530601 3.251937 0.000000 0.000000 0.000000 0.000000 0.000000 0.000000 14.747435 6.808996 1.884733 57.925617 2.814853 -3.834337 -3.218051 35.189913 0.161060 0.000000 0.000000 0.000000 0.000000 0.000000 0.000000 
